<svg id="visual" viewBox="0 0 1650 950" width="1650" height="950" xmlns="http://www.w3.org/2000/svg" xmlns:xlink="http://www.w3.org/1999/xlink" version="1.1"><g stroke-width="1" stroke-linejoin="bevel"><path d="M774.5 483L777.5 574.8L898.5 497Z" fill="#c14d4a" stroke="#c14d4a"></path><path d="M777.5 574.8L872.5 590.8L898.5 497Z" fill="#c14d4a" stroke="#c14d4a"></path><path d="M639.6 572.8L778.5 701.5L777.5 574.8Z" fill="#920f0c" stroke="#920f0c"></path><path d="M777.5 574.8L778.5 701.5L872.5 590.8Z" fill="#8b0000" stroke="#8b0000"></path><path d="M883.5 708.5L998.4 612.8L872.5 590.8Z" fill="#cd5c5c" stroke="#cd5c5c"></path><path d="M872.5 590.8L998.4 612.8L898.5 497Z" fill="#8b0000" stroke="#8b0000"></path><path d="M778.5 701.5L883.5 708.5L872.5 590.8Z" fill="#a0241e" stroke="#a0241e"></path><path d="M1013.4 356.3L866.5 340.3L898.5 497Z" fill="#920f0c" stroke="#920f0c"></path><path d="M898.5 497L866.5 340.3L774.5 483Z" fill="#b43d39" stroke="#b43d39"></path><path d="M998.4 612.8L1016.4 468L898.5 497Z" fill="#c75453" stroke="#c75453"></path><path d="M640.6 453L639.6 572.8L774.5 483Z" fill="#a0241e" stroke="#a0241e"></path><path d="M774.5 483L639.6 572.8L777.5 574.8Z" fill="#ae3530" stroke="#ae3530"></path><path d="M738.5 335.3L640.6 453L774.5 483Z" fill="#ae3530" stroke="#ae3530"></path><path d="M866.5 340.3L738.5 335.3L774.5 483Z" fill="#a0241e" stroke="#a0241e"></path><path d="M1016.4 468L1013.4 356.3L898.5 497Z" fill="#991a15" stroke="#991a15"></path><path d="M883.5 708.5L1022.4 695.5L998.4 612.8Z" fill="#cd5c5c" stroke="#cd5c5c"></path><path d="M1158.3 573.8L1154.3 466L1016.4 468Z" fill="#c14d4a" stroke="#c14d4a"></path><path d="M738.5 335.3L631.6 354.3L640.6 453Z" fill="#ae3530" stroke="#ae3530"></path><path d="M519.7 581.8L611.6 726.5L639.6 572.8Z" fill="#cd5c5c" stroke="#cd5c5c"></path><path d="M519.7 581.8L639.6 572.8L640.6 453Z" fill="#a72d27" stroke="#a72d27"></path><path d="M639.6 572.8L611.6 726.5L778.5 701.5Z" fill="#bb4542" stroke="#bb4542"></path><path d="M778.5 701.5L779.5 831.3L883.5 708.5Z" fill="#920f0c" stroke="#920f0c"></path><path d="M626.6 827.3L779.5 831.3L778.5 701.5Z" fill="#cd5c5c" stroke="#cd5c5c"></path><path d="M883.5 708.5L1014.4 812.3L1022.4 695.5Z" fill="#991a15" stroke="#991a15"></path><path d="M866.5 340.3L746.5 225.5L738.5 335.3Z" fill="#c14d4a" stroke="#c14d4a"></path><path d="M738.5 335.3L628.6 245.5L631.6 354.3Z" fill="#991a15" stroke="#991a15"></path><path d="M870.5 215.5L746.5 225.5L866.5 340.3Z" fill="#bb4542" stroke="#bb4542"></path><path d="M996.4 235.5L870.5 215.5L866.5 340.3Z" fill="#b43d39" stroke="#b43d39"></path><path d="M488.7 473L519.7 581.8L640.6 453Z" fill="#b43d39" stroke="#b43d39"></path><path d="M1158.3 573.8L1016.4 468L998.4 612.8Z" fill="#920f0c" stroke="#920f0c"></path><path d="M1016.4 468L1133.3 357.3L1013.4 356.3Z" fill="#c14d4a" stroke="#c14d4a"></path><path d="M1013.4 356.3L996.4 235.5L866.5 340.3Z" fill="#c75453" stroke="#c75453"></path><path d="M1022.4 695.5L1158.3 573.8L998.4 612.8Z" fill="#a72d27" stroke="#a72d27"></path><path d="M779.5 831.3L904.5 853.3L883.5 708.5Z" fill="#cd5c5c" stroke="#cd5c5c"></path><path d="M1022.4 695.5L1150.3 718.5L1158.3 573.8Z" fill="#8b0000" stroke="#8b0000"></path><path d="M1130.3 247.5L996.4 235.5L1013.4 356.3Z" fill="#cd5c5c" stroke="#cd5c5c"></path><path d="M904.5 853.3L1014.4 812.3L883.5 708.5Z" fill="#920f0c" stroke="#920f0c"></path><path d="M1154.3 466L1133.3 357.3L1016.4 468Z" fill="#b43d39" stroke="#b43d39"></path><path d="M628.6 245.5L520.7 375.3L631.6 354.3Z" fill="#8b0000" stroke="#8b0000"></path><path d="M631.6 354.3L520.7 375.3L640.6 453Z" fill="#991a15" stroke="#991a15"></path><path d="M746.5 225.5L628.6 245.5L738.5 335.3Z" fill="#b43d39" stroke="#b43d39"></path><path d="M520.7 375.3L488.7 473L640.6 453Z" fill="#ae3530" stroke="#ae3530"></path><path d="M511.7 843.3L626.6 827.3L611.6 726.5Z" fill="#b43d39" stroke="#b43d39"></path><path d="M611.6 726.5L626.6 827.3L778.5 701.5Z" fill="#cd5c5c" stroke="#cd5c5c"></path><path d="M779.5 831.3L883.5 950L904.5 853.3Z" fill="#ae3530" stroke="#ae3530"></path><path d="M1014.4 812.3L1150.3 718.5L1022.4 695.5Z" fill="#c75453" stroke="#c75453"></path><path d="M519.7 581.8L495.7 697.5L611.6 726.5Z" fill="#b43d39" stroke="#b43d39"></path><path d="M380.8 613.8L495.7 697.5L519.7 581.8Z" fill="#ae3530" stroke="#ae3530"></path><path d="M996.4 235.5L907.5 125.8L870.5 215.5Z" fill="#cd5c5c" stroke="#cd5c5c"></path><path d="M870.5 215.5L756.5 122.8L746.5 225.5Z" fill="#a72d27" stroke="#a72d27"></path><path d="M746.5 225.5L615.6 123.8L628.6 245.5Z" fill="#991a15" stroke="#991a15"></path><path d="M1002.4 137.8L907.5 125.8L996.4 235.5Z" fill="#b43d39" stroke="#b43d39"></path><path d="M1248.2 336.3L1130.3 247.5L1133.3 357.3Z" fill="#b43d39" stroke="#b43d39"></path><path d="M1133.3 357.3L1130.3 247.5L1013.4 356.3Z" fill="#ae3530" stroke="#ae3530"></path><path d="M907.5 125.8L756.5 122.8L870.5 215.5Z" fill="#991a15" stroke="#991a15"></path><path d="M1130.3 247.5L1002.4 137.8L996.4 235.5Z" fill="#cd5c5c" stroke="#cd5c5c"></path><path d="M1150.3 718.5L1250.2 603.8L1158.3 573.8Z" fill="#cd5c5c" stroke="#cd5c5c"></path><path d="M1158.3 573.8L1254.2 462L1154.3 466Z" fill="#c75453" stroke="#c75453"></path><path d="M1154.3 466L1248.2 336.3L1133.3 357.3Z" fill="#991a15" stroke="#991a15"></path><path d="M642.6 950L783.5 950L779.5 831.3Z" fill="#a0241e" stroke="#a0241e"></path><path d="M904.5 853.3L1022.4 950L1014.4 812.3Z" fill="#cd5c5c" stroke="#cd5c5c"></path><path d="M783.5 950L883.5 950L779.5 831.3Z" fill="#cd5c5c" stroke="#cd5c5c"></path><path d="M1014.4 812.3L1153.3 830.3L1150.3 718.5Z" fill="#920f0c" stroke="#920f0c"></path><path d="M1250.2 603.8L1254.2 462L1158.3 573.8Z" fill="#c75453" stroke="#c75453"></path><path d="M520.7 375.3L400.8 463L488.7 473Z" fill="#8b0000" stroke="#8b0000"></path><path d="M488.7 473L380.8 613.8L519.7 581.8Z" fill="#a72d27" stroke="#a72d27"></path><path d="M396.8 354.3L400.8 463L520.7 375.3Z" fill="#991a15" stroke="#991a15"></path><path d="M521.7 220.5L520.7 375.3L628.6 245.5Z" fill="#c14d4a" stroke="#c14d4a"></path><path d="M615.6 123.8L521.7 220.5L628.6 245.5Z" fill="#920f0c" stroke="#920f0c"></path><path d="M1022.4 950L1153.3 830.3L1014.4 812.3Z" fill="#ae3530" stroke="#ae3530"></path><path d="M1150.3 718.5L1260.2 724.5L1250.2 603.8Z" fill="#8b0000" stroke="#8b0000"></path><path d="M495.7 697.5L511.7 843.3L611.6 726.5Z" fill="#c14d4a" stroke="#c14d4a"></path><path d="M626.6 827.3L642.6 950L779.5 831.3Z" fill="#b43d39" stroke="#b43d39"></path><path d="M391.8 831.3L511.7 843.3L495.7 697.5Z" fill="#bb4542" stroke="#bb4542"></path><path d="M1254.2 462L1248.2 336.3L1154.3 466Z" fill="#bb4542" stroke="#bb4542"></path><path d="M1130.3 247.5L1139.3 120.8L1002.4 137.8Z" fill="#991a15" stroke="#991a15"></path><path d="M756.5 122.8L615.6 123.8L746.5 225.5Z" fill="#a0241e" stroke="#a0241e"></path><path d="M400.8 463L380.8 613.8L488.7 473Z" fill="#991a15" stroke="#991a15"></path><path d="M511.7 843.3L642.6 950L626.6 827.3Z" fill="#c75453" stroke="#c75453"></path><path d="M883.5 950L1022.4 950L904.5 853.3Z" fill="#991a15" stroke="#991a15"></path><path d="M521.7 220.5L396.8 354.3L520.7 375.3Z" fill="#b43d39" stroke="#b43d39"></path><path d="M400.8 463L250.8 580.8L380.8 613.8Z" fill="#a0241e" stroke="#a0241e"></path><path d="M1247.2 832.3L1260.2 724.5L1150.3 718.5Z" fill="#bb4542" stroke="#bb4542"></path><path d="M1250.2 603.8L1377.2 596.8L1254.2 462Z" fill="#a72d27" stroke="#a72d27"></path><path d="M380.8 613.8L376.8 690.5L495.7 697.5Z" fill="#cd5c5c" stroke="#cd5c5c"></path><path d="M1261.2 224.5L1139.3 120.8L1130.3 247.5Z" fill="#c14d4a" stroke="#c14d4a"></path><path d="M994.4 0L897.5 0L907.5 125.8Z" fill="#bb4542" stroke="#bb4542"></path><path d="M907.5 125.8L897.5 0L756.5 122.8Z" fill="#ae3530" stroke="#ae3530"></path><path d="M1163.3 950L1247.2 832.3L1153.3 830.3Z" fill="#c75453" stroke="#c75453"></path><path d="M1153.3 830.3L1247.2 832.3L1150.3 718.5Z" fill="#cd5c5c" stroke="#cd5c5c"></path><path d="M615.6 123.8L506.7 127.8L521.7 220.5Z" fill="#991a15" stroke="#991a15"></path><path d="M521.7 220.5L360.8 249.5L396.8 354.3Z" fill="#c14d4a" stroke="#c14d4a"></path><path d="M1248.2 336.3L1261.2 224.5L1130.3 247.5Z" fill="#991a15" stroke="#991a15"></path><path d="M1378.2 352.3L1261.2 224.5L1248.2 336.3Z" fill="#a0241e" stroke="#a0241e"></path><path d="M1378.2 352.3L1248.2 336.3L1254.2 462Z" fill="#8b0000" stroke="#8b0000"></path><path d="M994.4 0L907.5 125.8L1002.4 137.8Z" fill="#c14d4a" stroke="#c14d4a"></path><path d="M756.5 122.8L633.6 0L615.6 123.8Z" fill="#bb4542" stroke="#bb4542"></path><path d="M615.6 123.8L516.7 0L506.7 127.8Z" fill="#a0241e" stroke="#a0241e"></path><path d="M391.8 831.3L509.7 950L511.7 843.3Z" fill="#b43d39" stroke="#b43d39"></path><path d="M511.7 843.3L509.7 950L642.6 950Z" fill="#a72d27" stroke="#a72d27"></path><path d="M897.5 0L758.5 0L756.5 122.8Z" fill="#b43d39" stroke="#b43d39"></path><path d="M376.8 690.5L391.8 831.3L495.7 697.5Z" fill="#920f0c" stroke="#920f0c"></path><path d="M1022.4 950L1163.3 950L1153.3 830.3Z" fill="#991a15" stroke="#991a15"></path><path d="M506.7 127.8L360.8 249.5L521.7 220.5Z" fill="#a72d27" stroke="#a72d27"></path><path d="M234.8 483L250.8 580.8L400.8 463Z" fill="#8b0000" stroke="#8b0000"></path><path d="M380.8 613.8L250.8 580.8L376.8 690.5Z" fill="#ae3530" stroke="#ae3530"></path><path d="M1417.2 707.5L1377.2 596.8L1260.2 724.5Z" fill="#920f0c" stroke="#920f0c"></path><path d="M1260.2 724.5L1377.2 596.8L1250.2 603.8Z" fill="#cd5c5c" stroke="#cd5c5c"></path><path d="M1125.3 0L994.4 0L1002.4 137.8Z" fill="#ae3530" stroke="#ae3530"></path><path d="M758.5 0L633.6 0L756.5 122.8Z" fill="#c75453" stroke="#c75453"></path><path d="M249.8 129.8L268.8 243.5L360.8 249.5Z" fill="#c75453" stroke="#c75453"></path><path d="M1377.2 596.8L1393.2 466L1254.2 462Z" fill="#c75453" stroke="#c75453"></path><path d="M1393.2 466L1378.2 352.3L1254.2 462Z" fill="#a0241e" stroke="#a0241e"></path><path d="M234.8 483L400.8 463L257.8 341.3Z" fill="#cd5c5c" stroke="#cd5c5c"></path><path d="M376.8 690.5L266.8 729.5L391.8 831.3Z" fill="#b43d39" stroke="#b43d39"></path><path d="M257.8 341.3L400.8 463L396.8 354.3Z" fill="#cd5c5c" stroke="#cd5c5c"></path><path d="M269.8 844.3L137.9 950L257.8 950Z" fill="#a72d27" stroke="#a72d27"></path><path d="M250.8 580.8L266.8 729.5L376.8 690.5Z" fill="#c14d4a" stroke="#c14d4a"></path><path d="M391.8 831.3L381.8 950L509.7 950Z" fill="#920f0c" stroke="#920f0c"></path><path d="M1264.2 0L1125.3 0L1139.3 120.8Z" fill="#8b0000" stroke="#8b0000"></path><path d="M1139.3 120.8L1125.3 0L1002.4 137.8Z" fill="#8b0000" stroke="#8b0000"></path><path d="M1277.2 103.8L1139.3 120.8L1261.2 224.5Z" fill="#ae3530" stroke="#ae3530"></path><path d="M360.8 249.5L257.8 341.3L396.8 354.3Z" fill="#cd5c5c" stroke="#cd5c5c"></path><path d="M268.8 243.5L257.8 341.3L360.8 249.5Z" fill="#8b0000" stroke="#8b0000"></path><path d="M1382.2 838.3L1417.2 707.5L1260.2 724.5Z" fill="#cd5c5c" stroke="#cd5c5c"></path><path d="M1545.1 487L1508.1 374.3L1393.2 466Z" fill="#cd5c5c" stroke="#cd5c5c"></path><path d="M1382.2 838.3L1260.2 724.5L1247.2 832.3Z" fill="#a72d27" stroke="#a72d27"></path><path d="M1163.3 950L1275.2 950L1247.2 832.3Z" fill="#991a15" stroke="#991a15"></path><path d="M1375.2 112.8L1277.2 103.8L1261.2 224.5Z" fill="#a72d27" stroke="#a72d27"></path><path d="M633.6 0L516.7 0L615.6 123.8Z" fill="#cd5c5c" stroke="#cd5c5c"></path><path d="M269.8 844.3L381.8 950L391.8 831.3Z" fill="#a0241e" stroke="#a0241e"></path><path d="M365.8 101.8L360.8 249.5L506.7 127.8Z" fill="#cd5c5c" stroke="#cd5c5c"></path><path d="M127.9 364.3L113.9 492L234.8 483Z" fill="#b43d39" stroke="#b43d39"></path><path d="M389.8 0L365.8 101.8L506.7 127.8Z" fill="#920f0c" stroke="#920f0c"></path><path d="M1275.2 950L1382.2 838.3L1247.2 832.3Z" fill="#ae3530" stroke="#ae3530"></path><path d="M1378.2 352.3L1403.2 236.5L1261.2 224.5Z" fill="#920f0c" stroke="#920f0c"></path><path d="M1508.1 374.3L1403.2 236.5L1378.2 352.3Z" fill="#a72d27" stroke="#a72d27"></path><path d="M1508.1 374.3L1378.2 352.3L1393.2 466Z" fill="#c14d4a" stroke="#c14d4a"></path><path d="M266.8 729.5L269.8 844.3L391.8 831.3Z" fill="#bb4542" stroke="#bb4542"></path><path d="M269.8 844.3L266.8 729.5L108.9 821.3Z" fill="#c75453" stroke="#c75453"></path><path d="M1375.2 112.8L1264.2 0L1277.2 103.8Z" fill="#920f0c" stroke="#920f0c"></path><path d="M1277.2 103.8L1264.2 0L1139.3 120.8Z" fill="#bb4542" stroke="#bb4542"></path><path d="M1403.2 236.5L1375.2 112.8L1261.2 224.5Z" fill="#bb4542" stroke="#bb4542"></path><path d="M516.7 0L389.8 0L506.7 127.8Z" fill="#a0241e" stroke="#a0241e"></path><path d="M365.8 101.8L249.8 129.8L360.8 249.5Z" fill="#920f0c" stroke="#920f0c"></path><path d="M1509.1 691.5L1377.2 596.8L1417.2 707.5Z" fill="#a0241e" stroke="#a0241e"></path><path d="M1533.1 593.8L1393.2 466L1377.2 596.8Z" fill="#c75453" stroke="#c75453"></path><path d="M1403.2 236.5L1510.1 103.8L1375.2 112.8Z" fill="#b43d39" stroke="#b43d39"></path><path d="M1532.1 813.3L1509.1 691.5L1417.2 707.5Z" fill="#c75453" stroke="#c75453"></path><path d="M1509.1 691.5L1533.1 593.8L1377.2 596.8Z" fill="#c14d4a" stroke="#c14d4a"></path><path d="M253.8 0L249.8 129.8L365.8 101.8Z" fill="#cd5c5c" stroke="#cd5c5c"></path><path d="M127.9 364.3L234.8 483L257.8 341.3Z" fill="#8b0000" stroke="#8b0000"></path><path d="M119.9 699.5L266.8 729.5L250.8 580.8Z" fill="#991a15" stroke="#991a15"></path><path d="M269.8 844.3L257.8 950L381.8 950Z" fill="#ae3530" stroke="#ae3530"></path><path d="M1533.1 593.8L1545.1 487L1393.2 466Z" fill="#c75453" stroke="#c75453"></path><path d="M127.9 364.3L257.8 341.3L119.9 215.5Z" fill="#bb4542" stroke="#bb4542"></path><path d="M234.8 483L113.9 492L250.8 580.8Z" fill="#a72d27" stroke="#a72d27"></path><path d="M1275.2 950L1415.2 950L1382.2 838.3Z" fill="#b43d39" stroke="#b43d39"></path><path d="M1382.2 838.3L1532.1 813.3L1417.2 707.5Z" fill="#a0241e" stroke="#a0241e"></path><path d="M119.9 215.5L257.8 341.3L268.8 243.5Z" fill="#8b0000" stroke="#8b0000"></path><path d="M113.9 492L104.9 583.8L250.8 580.8Z" fill="#c75453" stroke="#c75453"></path><path d="M104.9 583.8L119.9 699.5L250.8 580.8Z" fill="#c14d4a" stroke="#c14d4a"></path><path d="M1650 585.8L1545.1 487L1533.1 593.8Z" fill="#c75453" stroke="#c75453"></path><path d="M1650 585.8L1650 493L1545.1 487Z" fill="#ae3530" stroke="#ae3530"></path><path d="M1415.2 950L1532.1 813.3L1382.2 838.3Z" fill="#991a15" stroke="#991a15"></path><path d="M1650 366.3L1536.1 250.5L1508.1 374.3Z" fill="#8b0000" stroke="#8b0000"></path><path d="M1508.1 374.3L1536.1 250.5L1403.2 236.5Z" fill="#a0241e" stroke="#a0241e"></path><path d="M1375.2 112.8L1410.2 0L1264.2 0Z" fill="#c14d4a" stroke="#c14d4a"></path><path d="M127.9 364.3L0 483L113.9 492Z" fill="#c75453" stroke="#c75453"></path><path d="M113.9 492L0 483L104.9 583.8Z" fill="#8b0000" stroke="#8b0000"></path><path d="M249.8 129.8L119.9 215.5L268.8 243.5Z" fill="#b43d39" stroke="#b43d39"></path><path d="M137.9 97.8L119.9 215.5L249.8 129.8Z" fill="#a72d27" stroke="#a72d27"></path><path d="M0 706.5L108.9 821.3L119.9 699.5Z" fill="#991a15" stroke="#991a15"></path><path d="M119.9 699.5L108.9 821.3L266.8 729.5Z" fill="#c14d4a" stroke="#c14d4a"></path><path d="M1510.1 103.8L1410.2 0L1375.2 112.8Z" fill="#c14d4a" stroke="#c14d4a"></path><path d="M389.8 0L253.8 0L365.8 101.8Z" fill="#bb4542" stroke="#bb4542"></path><path d="M1536.1 250.5L1510.1 103.8L1403.2 236.5Z" fill="#c75453" stroke="#c75453"></path><path d="M1415.2 950L1525.1 950L1532.1 813.3Z" fill="#ae3530" stroke="#ae3530"></path><path d="M108.9 821.3L137.9 950L269.8 844.3Z" fill="#bb4542" stroke="#bb4542"></path><path d="M253.8 0L137.9 97.8L249.8 129.8Z" fill="#b43d39" stroke="#b43d39"></path><path d="M1545.1 487L1650 366.3L1508.1 374.3Z" fill="#ae3530" stroke="#ae3530"></path><path d="M1536.1 250.5L1650 124.8L1510.1 103.8Z" fill="#c75453" stroke="#c75453"></path><path d="M1650 585.8L1533.1 593.8L1650 726.5Z" fill="#cd5c5c" stroke="#cd5c5c"></path><path d="M1533.1 593.8L1509.1 691.5L1650 726.5Z" fill="#bb4542" stroke="#bb4542"></path><path d="M1650 726.5L1509.1 691.5L1532.1 813.3Z" fill="#920f0c" stroke="#920f0c"></path><path d="M1650 493L1650 366.3L1545.1 487Z" fill="#cd5c5c" stroke="#cd5c5c"></path><path d="M0 340.3L127.9 364.3L119.9 215.5Z" fill="#920f0c" stroke="#920f0c"></path><path d="M0 340.3L0 483L127.9 364.3Z" fill="#c14d4a" stroke="#c14d4a"></path><path d="M104.9 583.8L0 595.8L119.9 699.5Z" fill="#8b0000" stroke="#8b0000"></path><path d="M108.9 821.3L0 950L137.9 950Z" fill="#a0241e" stroke="#a0241e"></path><path d="M0 483L0 595.8L104.9 583.8Z" fill="#991a15" stroke="#991a15"></path><path d="M1650 830.3L1650 726.5L1532.1 813.3Z" fill="#a0241e" stroke="#a0241e"></path><path d="M0 595.8L0 706.5L119.9 699.5Z" fill="#a72d27" stroke="#a72d27"></path><path d="M0 225.5L0 340.3L119.9 215.5Z" fill="#8b0000" stroke="#8b0000"></path><path d="M1650 0L1509.1 0L1510.1 103.8Z" fill="#ae3530" stroke="#ae3530"></path><path d="M1510.1 103.8L1509.1 0L1410.2 0Z" fill="#a0241e" stroke="#a0241e"></path><path d="M1650 366.3L1650 229.5L1536.1 250.5Z" fill="#bb4542" stroke="#bb4542"></path><path d="M1525.1 950L1650 830.3L1532.1 813.3Z" fill="#a0241e" stroke="#a0241e"></path><path d="M253.8 0L125.9 0L137.9 97.8Z" fill="#bb4542" stroke="#bb4542"></path><path d="M0 138.8L0 225.5L119.9 215.5Z" fill="#b43d39" stroke="#b43d39"></path><path d="M0 706.5L0 820.3L108.9 821.3Z" fill="#a72d27" stroke="#a72d27"></path><path d="M0 138.8L119.9 215.5L137.9 97.8Z" fill="#c75453" stroke="#c75453"></path><path d="M1650 229.5L1650 124.8L1536.1 250.5Z" fill="#a0241e" stroke="#a0241e"></path><path d="M0 0L0 138.8L137.9 97.8Z" fill="#cd5c5c" stroke="#cd5c5c"></path><path d="M1525.1 950L1650 950L1650 830.3Z" fill="#ae3530" stroke="#ae3530"></path><path d="M0 820.3L0 950L108.9 821.3Z" fill="#bb4542" stroke="#bb4542"></path><path d="M1650 124.8L1650 0L1510.1 103.8Z" fill="#991a15" stroke="#991a15"></path><path d="M125.9 0L0 0L137.9 97.8Z" fill="#920f0c" stroke="#920f0c"></path></g></svg>