<svg id="visual" viewBox="0 0 960 540" width="960" height="540" xmlns="http://www.w3.org/2000/svg" xmlns:xlink="http://www.w3.org/1999/xlink" version="1.1"><path d="M0 71L137 33L274 39L411 55L549 60L686 50L823 82L960 50L960 0L823 0L686 0L549 0L411 0L274 0L137 0L0 0Z" fill="#cd5c5c"></path><path d="M0 185L137 136L274 168L411 201L549 152L686 168L823 201L960 125L960 48L823 80L686 48L549 58L411 53L274 37L137 31L0 69Z" fill="#be4946"></path><path d="M0 320L137 271L274 314L411 287L549 260L686 379L823 401L960 293L960 123L823 199L686 166L549 150L411 199L274 166L137 134L0 183Z" fill="#ae3530"></path><path d="M0 503L137 476L274 433L411 476L549 476L686 487L823 465L960 433L960 291L823 399L686 377L549 258L411 285L274 312L137 269L0 318Z" fill="#9d1f1a"></path><path d="M0 541L137 541L274 541L411 541L549 541L686 541L823 541L960 541L960 431L823 463L686 485L549 474L411 474L274 431L137 474L0 501Z" fill="#8b0000"></path></svg>